<svg  xmlns="http://www.w3.org/2000/svg" xmlns:xlink="http://www.w3.org/1999/xlink" width="162px" height="38px"><path fill-rule="evenodd"  fill="rgb(255, 230, 200)" d="M160.874,34.334 C160.468,34.826 159.843,35.072 158.999,35.072 C158.171,35.072 157.526,34.756 157.065,34.123 C156.604,33.490 156.374,32.721 156.374,31.814 C156.374,31.283 156.507,30.853 156.772,30.525 C157.038,30.197 157.354,29.959 157.722,29.810 C158.089,29.662 158.428,29.588 158.741,29.588 C159.194,29.588 159.632,29.701 160.054,29.927 C160.476,30.154 160.819,30.475 161.085,30.888 C161.350,31.303 161.483,31.775 161.483,32.306 C161.483,33.166 161.280,33.842 160.874,34.334 ZM152.249,35.072 C151.421,35.072 150.776,34.756 150.315,34.123 C149.854,33.490 149.624,32.721 149.624,31.814 C149.624,31.283 149.757,30.853 150.022,30.525 C150.288,30.197 150.604,29.959 150.972,29.810 C151.339,29.662 151.678,29.588 151.991,29.588 C152.444,29.588 152.882,29.701 153.304,29.927 C153.726,30.154 154.069,30.475 154.335,30.888 C154.600,31.303 154.733,31.775 154.733,32.306 C154.733,33.166 154.530,33.842 154.124,34.334 C153.718,34.826 153.093,35.072 152.249,35.072 ZM145.499,35.072 C144.671,35.072 144.026,34.756 143.565,34.123 C143.104,33.490 142.874,32.721 142.874,31.814 C142.874,31.283 143.007,30.853 143.272,30.525 C143.538,30.197 143.854,29.959 144.222,29.810 C144.589,29.662 144.928,29.588 145.241,29.588 C145.694,29.588 146.132,29.701 146.554,29.927 C146.976,30.154 147.319,30.475 147.585,30.888 C147.850,31.303 147.983,31.775 147.983,32.306 C147.983,33.166 147.780,33.842 147.374,34.334 C146.968,34.826 146.343,35.072 145.499,35.072 ZM135.620,15.150 C135.159,15.510 134.507,15.978 133.663,16.556 C132.272,17.494 131.124,18.361 130.218,19.158 C130.593,19.518 130.893,19.869 131.120,20.213 C131.346,20.556 131.460,20.853 131.460,21.103 C131.460,21.306 131.308,21.560 131.003,21.865 C130.698,22.170 130.366,22.436 130.007,22.662 C129.647,22.889 129.421,22.986 129.327,22.955 C127.530,22.314 124.804,21.994 121.147,21.994 C120.241,21.994 119.561,22.002 119.108,22.017 C119.140,23.268 119.226,25.619 119.366,29.072 C119.460,31.822 119.507,33.260 119.507,33.384 C119.507,33.838 119.284,34.419 118.839,35.131 C118.394,35.841 117.886,36.470 117.315,37.017 C116.745,37.564 116.296,37.838 115.968,37.838 C115.780,37.838 115.561,37.744 115.312,37.556 C115.061,37.369 114.811,37.080 114.562,36.689 C114.499,36.580 114.327,36.314 114.046,35.892 C113.765,35.470 113.519,35.060 113.308,34.662 C113.097,34.263 112.991,33.962 112.991,33.759 C113.007,33.478 113.100,32.486 113.272,30.783 C113.428,29.455 113.515,28.635 113.530,28.322 C113.577,27.056 113.616,25.064 113.647,22.345 C111.991,22.486 109.804,22.720 107.085,23.049 L106.429,23.119 C106.288,23.822 106.046,24.443 105.702,24.982 C105.358,25.521 104.960,25.799 104.507,25.814 C104.163,25.814 103.800,25.654 103.417,25.334 C103.034,25.014 102.690,24.631 102.386,24.185 C102.081,23.740 101.874,23.369 101.765,23.072 C101.546,22.463 101.390,21.752 101.296,20.939 C101.202,20.127 101.116,19.056 101.038,17.728 C100.975,16.728 100.921,16.002 100.874,15.549 C100.749,14.268 100.546,13.303 100.265,12.654 C99.983,12.006 99.729,11.552 99.503,11.295 C99.276,11.037 99.163,10.884 99.163,10.838 C99.147,10.650 99.210,10.392 99.351,10.064 C99.491,9.736 99.671,9.549 99.890,9.502 C100.077,9.439 100.327,9.408 100.640,9.408 C101.218,9.408 101.866,9.506 102.585,9.701 C103.303,9.896 103.772,10.049 103.991,10.158 C104.350,10.345 104.608,10.556 104.765,10.791 C106.577,10.713 109.499,10.463 113.530,10.041 C113.452,8.135 113.350,6.877 113.226,6.267 C113.100,5.643 112.905,4.994 112.640,4.322 C112.514,3.994 112.452,3.775 112.452,3.666 C112.452,3.525 112.663,3.291 113.085,2.963 C113.507,2.634 113.976,2.334 114.491,2.060 C115.007,1.787 115.382,1.650 115.616,1.650 C116.069,1.650 116.624,1.865 117.280,2.295 C117.937,2.725 118.538,3.201 119.085,3.724 C119.632,4.248 119.905,4.572 119.905,4.697 C119.890,4.869 119.827,5.092 119.718,5.365 C119.608,5.639 119.460,5.900 119.272,6.150 C119.163,6.306 119.093,7.392 119.062,9.408 C123.874,8.814 126.632,8.447 127.335,8.306 C127.866,8.197 128.577,7.994 129.468,7.697 C130.514,7.369 131.186,7.197 131.483,7.181 C131.765,7.181 132.386,7.537 133.347,8.248 C134.308,8.959 135.187,9.744 135.983,10.603 C136.780,11.463 137.179,12.150 137.179,12.666 C137.179,13.134 137.034,13.576 136.745,13.990 C136.456,14.404 136.081,14.791 135.620,15.150 ZM113.624,12.806 C109.702,13.338 106.874,13.806 105.140,14.213 C105.140,14.478 105.163,14.892 105.210,15.455 C105.272,16.189 105.515,17.377 105.937,19.017 L106.077,19.627 L107.554,19.486 L113.671,18.877 C113.671,17.392 113.655,15.369 113.624,12.806 ZM126.187,11.845 C126.124,11.752 125.772,11.705 125.132,11.705 C124.022,11.705 121.999,11.853 119.062,12.150 C119.093,14.963 119.108,17.017 119.108,18.314 C121.952,18.018 123.780,17.799 124.593,17.658 C125.046,16.799 125.452,15.885 125.812,14.916 C126.171,13.947 126.351,13.158 126.351,12.549 C126.351,12.236 126.296,12.002 126.187,11.845 ZM88.675,37.275 C88.183,37.603 87.686,37.767 87.187,37.767 C86.421,37.767 85.456,37.478 84.292,36.900 C83.128,36.322 81.886,35.361 80.565,34.017 C79.245,32.674 78.022,30.924 76.897,28.767 C75.553,30.080 74.163,31.271 72.726,32.342 C71.288,33.412 69.995,34.279 68.847,34.943 C67.698,35.607 66.843,36.001 66.280,36.127 C66.014,36.470 65.718,36.763 65.390,37.006 C65.062,37.248 64.757,37.369 64.476,37.369 C64.163,37.369 63.780,37.205 63.327,36.877 C62.874,36.549 62.475,36.174 62.132,35.752 C61.788,35.330 61.616,35.025 61.616,34.838 C61.632,34.650 61.765,34.134 62.015,33.291 C62.046,33.166 62.089,33.025 62.144,32.869 C62.198,32.713 62.249,32.533 62.296,32.330 L60.397,33.267 C58.507,34.205 57.147,34.853 56.319,35.213 C55.491,35.572 54.874,35.752 54.468,35.752 C54.077,35.752 53.604,35.607 53.050,35.318 C52.495,35.029 52.011,34.654 51.597,34.193 C51.183,33.732 50.976,33.260 50.976,32.775 C50.976,32.306 51.319,31.795 52.007,31.240 C52.694,30.686 53.444,30.185 54.257,29.740 C55.069,29.295 55.608,29.025 55.874,28.931 C56.046,28.869 56.194,28.838 56.319,28.838 C56.491,28.838 56.577,28.924 56.577,29.095 C56.577,29.189 56.554,29.330 56.507,29.517 C56.460,29.705 56.421,29.861 56.390,29.986 C56.374,30.033 56.366,30.103 56.366,30.197 C56.366,30.494 56.554,30.642 56.929,30.642 C57.116,30.642 57.366,30.603 57.679,30.525 C59.210,30.103 60.937,29.611 62.858,29.049 C63.014,27.783 63.108,26.939 63.140,26.517 C62.515,26.627 62.155,26.697 62.062,26.728 C61.827,26.791 61.139,27.018 59.999,27.408 C57.655,28.205 56.358,28.611 56.108,28.627 C55.905,28.642 55.558,28.521 55.065,28.263 C54.573,28.006 54.100,27.686 53.647,27.302 C53.194,26.920 52.897,26.572 52.757,26.259 C52.678,26.057 52.640,25.924 52.640,25.861 C52.640,25.814 52.659,25.771 52.698,25.732 C52.737,25.693 52.780,25.650 52.827,25.603 C52.983,25.463 53.397,25.369 54.069,25.322 C55.397,24.072 56.460,22.822 57.257,21.572 C55.897,21.806 55.163,21.924 55.054,21.924 C54.866,21.939 54.663,21.877 54.444,21.736 C54.225,21.595 54.007,21.431 53.788,21.244 C53.569,21.056 53.405,20.924 53.296,20.845 C52.999,20.611 52.683,20.326 52.347,19.990 C52.011,19.654 51.843,19.408 51.843,19.252 C51.843,19.049 51.948,18.896 52.159,18.795 C52.370,18.693 52.577,18.642 52.780,18.642 C52.983,18.642 53.147,18.650 53.272,18.666 C53.741,18.713 54.069,18.728 54.257,18.713 C55.460,18.650 57.007,18.525 58.897,18.338 C59.241,17.478 59.546,16.596 59.812,15.689 C57.905,16.064 56.554,16.345 55.757,16.533 C54.460,16.814 53.718,16.955 53.530,16.955 C53.171,16.955 52.663,16.685 52.007,16.146 C51.351,15.607 50.729,15.014 50.144,14.365 C49.558,13.717 49.272,13.345 49.288,13.252 C49.303,13.096 49.366,12.951 49.476,12.818 C49.585,12.686 49.741,12.635 49.944,12.666 C50.960,12.791 52.249,12.853 53.812,12.853 C55.983,12.853 58.460,12.728 61.241,12.478 C61.241,12.260 61.249,12.088 61.265,11.963 C61.265,11.150 61.288,10.314 61.335,9.455 C59.226,9.924 57.975,10.158 57.585,10.158 C57.288,10.158 56.862,9.955 56.308,9.549 C55.753,9.142 55.229,8.697 54.737,8.213 C54.245,7.728 54.007,7.447 54.022,7.369 C54.038,7.244 54.093,7.127 54.187,7.017 C54.280,6.908 54.405,6.861 54.562,6.877 C55.218,6.970 55.921,7.017 56.671,7.017 C57.858,7.017 59.444,6.885 61.429,6.619 C61.476,5.447 61.499,4.658 61.499,4.252 C61.499,4.033 61.432,3.842 61.300,3.677 C61.167,3.513 60.975,3.338 60.726,3.150 C60.491,2.963 60.307,2.791 60.175,2.634 C60.042,2.478 59.976,2.299 59.976,2.095 C59.976,1.924 60.167,1.744 60.550,1.556 C60.933,1.369 61.362,1.205 61.839,1.064 C62.315,0.924 62.639,0.853 62.812,0.853 C62.983,0.853 63.413,1.002 64.101,1.299 C64.788,1.596 65.417,1.924 65.987,2.283 C66.558,2.643 66.843,2.939 66.843,3.174 C66.827,3.455 66.757,3.892 66.632,4.486 C66.538,4.955 66.483,5.291 66.468,5.494 L66.444,5.822 C66.975,5.681 67.616,5.408 68.366,5.002 C68.413,4.986 68.526,4.928 68.706,4.826 C68.886,4.724 69.030,4.674 69.140,4.674 C69.452,4.674 69.937,4.857 70.593,5.224 C71.249,5.592 71.718,5.963 71.999,6.338 L71.999,5.986 L71.976,5.025 C71.976,4.385 71.956,3.932 71.917,3.666 C71.878,3.400 71.772,3.166 71.601,2.963 C71.413,2.760 71.147,2.580 70.804,2.424 C70.632,2.346 70.514,2.275 70.452,2.213 C70.390,2.150 70.366,2.033 70.382,1.861 C70.382,1.642 70.522,1.404 70.804,1.146 C71.085,0.888 71.409,0.666 71.776,0.478 C72.143,0.291 72.436,0.197 72.655,0.197 C73.093,0.197 73.671,0.346 74.390,0.642 C75.108,0.939 75.737,1.291 76.276,1.697 C76.815,2.103 77.085,2.478 77.085,2.822 C77.085,3.088 77.038,3.334 76.944,3.560 C76.851,3.787 76.796,3.924 76.780,3.970 C76.624,4.330 76.507,4.650 76.429,4.931 C76.350,5.213 76.303,5.588 76.288,6.056 C76.272,7.260 76.335,8.822 76.476,10.744 L77.483,10.650 C78.546,10.556 79.436,10.439 80.155,10.299 C80.874,10.158 81.624,9.986 82.405,9.783 C82.905,9.642 83.292,9.545 83.565,9.490 C83.839,9.435 84.124,9.408 84.421,9.408 C84.843,9.408 85.495,9.674 86.378,10.205 C87.261,10.736 88.057,11.322 88.769,11.963 C89.479,12.603 89.835,13.088 89.835,13.416 C89.835,13.541 89.675,13.760 89.354,14.072 C89.034,14.385 88.678,14.666 88.288,14.916 C87.897,15.166 87.593,15.291 87.374,15.291 C87.187,15.291 86.983,15.260 86.765,15.197 C86.546,15.135 86.257,15.033 85.897,14.892 C84.897,14.549 83.917,14.271 82.956,14.060 C81.995,13.849 80.749,13.744 79.218,13.744 C78.124,13.744 77.311,13.752 76.780,13.767 C77.124,16.439 77.601,18.877 78.210,21.080 C78.679,20.236 79.042,19.502 79.300,18.877 C79.558,18.252 79.687,17.791 79.687,17.494 C79.687,17.306 79.647,17.142 79.569,17.002 C79.491,16.861 79.444,16.783 79.429,16.767 C79.272,16.518 79.194,16.299 79.194,16.111 C79.194,15.768 79.358,15.521 79.687,15.373 C80.015,15.224 80.491,15.150 81.116,15.150 C81.538,15.150 81.999,15.365 82.499,15.795 C82.999,16.225 83.409,16.713 83.729,17.259 C84.050,17.807 84.171,18.205 84.093,18.455 C83.264,20.799 81.858,23.166 79.874,25.556 C81.311,28.400 83.030,29.822 85.030,29.822 C85.265,29.822 85.573,29.685 85.956,29.412 C86.339,29.139 86.733,28.701 87.140,28.099 C87.546,27.498 87.874,26.721 88.124,25.767 C88.218,25.439 88.323,25.181 88.440,24.994 C88.558,24.806 88.663,24.713 88.757,24.713 C88.851,24.713 88.929,24.791 88.991,24.947 C89.053,25.103 89.085,25.338 89.085,25.650 C89.085,25.744 89.069,25.963 89.038,26.306 C88.975,27.088 88.944,27.635 88.944,27.947 C88.944,28.963 89.030,29.838 89.202,30.572 C89.374,31.307 89.608,32.072 89.905,32.869 C90.061,33.291 90.178,33.635 90.257,33.900 C90.335,34.166 90.374,34.423 90.374,34.674 C90.374,35.111 90.214,35.572 89.894,36.056 C89.573,36.541 89.167,36.947 88.675,37.275 ZM62.483,20.658 C62.264,20.689 61.874,20.752 61.312,20.845 L60.796,21.830 C60.233,22.939 59.733,23.892 59.296,24.689 L62.366,24.220 L63.257,24.080 C63.225,23.080 63.108,22.416 62.905,22.088 C62.827,21.947 62.858,21.756 62.999,21.513 C63.140,21.271 63.335,21.033 63.585,20.799 C63.835,20.564 64.069,20.416 64.288,20.353 C63.413,20.494 62.812,20.596 62.483,20.658 ZM72.046,7.205 C71.812,7.502 71.503,7.795 71.120,8.084 C70.737,8.373 70.444,8.517 70.241,8.517 C69.944,8.517 69.655,8.494 69.374,8.447 C68.874,8.385 68.421,8.353 68.015,8.353 C67.468,8.353 66.897,8.392 66.304,8.470 L66.187,10.861 L66.140,11.986 L72.304,11.236 C72.178,9.814 72.093,8.470 72.046,7.205 ZM72.608,13.978 C69.905,14.166 67.194,14.470 64.476,14.892 C64.616,15.002 64.687,15.111 64.687,15.220 C64.671,15.408 64.616,15.572 64.522,15.713 C64.429,15.853 64.280,16.025 64.077,16.228 C64.030,16.291 63.897,16.443 63.679,16.685 C63.460,16.928 63.257,17.221 63.069,17.564 L62.952,17.775 C63.671,17.650 64.436,17.494 65.249,17.306 C65.890,17.166 66.655,16.939 67.546,16.627 C67.858,16.518 68.151,16.420 68.425,16.334 C68.698,16.248 68.936,16.205 69.140,16.205 C69.436,16.205 69.823,16.373 70.300,16.709 C70.776,17.045 71.206,17.416 71.589,17.822 C71.972,18.228 72.163,18.510 72.163,18.666 C72.163,18.822 72.061,19.017 71.858,19.252 C71.655,19.486 71.413,19.693 71.132,19.873 C70.851,20.053 70.608,20.142 70.405,20.142 C70.343,20.142 70.097,20.095 69.667,20.002 C69.237,19.908 68.694,19.861 68.038,19.861 C67.678,19.861 67.288,19.884 66.866,19.931 L64.499,20.306 L64.522,20.306 C64.882,20.322 65.284,20.439 65.729,20.658 C66.175,20.877 66.553,21.131 66.866,21.420 C67.179,21.709 67.335,21.955 67.335,22.158 C67.335,22.361 67.280,22.713 67.171,23.213 C69.296,22.682 70.507,22.416 70.804,22.416 C71.022,22.416 71.311,22.564 71.671,22.861 C72.030,23.158 72.354,23.490 72.644,23.857 C72.933,24.224 73.077,24.463 73.077,24.572 C73.061,24.775 72.917,25.010 72.644,25.275 C72.370,25.541 72.069,25.666 71.741,25.650 C70.600,25.603 68.960,25.720 66.819,26.002 L66.796,27.924 C70.202,26.924 72.194,26.330 72.772,26.142 C72.897,26.111 72.983,26.095 73.030,26.095 C73.296,26.095 73.522,26.189 73.710,26.377 C73.788,26.470 73.827,26.588 73.827,26.728 C73.827,26.853 73.788,26.971 73.710,27.080 C73.632,27.189 73.522,27.275 73.382,27.338 C71.038,28.307 68.843,29.259 66.796,30.197 L66.796,34.720 C68.343,33.580 69.854,32.205 71.331,30.595 C72.808,28.986 74.171,27.291 75.421,25.509 C74.108,22.150 73.171,18.306 72.608,13.978 ZM83.413,9.033 C82.819,9.033 82.382,8.904 82.101,8.646 C81.819,8.388 81.546,7.994 81.280,7.463 C80.999,6.900 80.733,6.486 80.483,6.220 C79.874,5.564 79.229,5.107 78.550,4.849 C77.870,4.592 77.530,4.455 77.530,4.439 C77.530,4.361 77.585,4.299 77.694,4.252 C78.210,4.033 78.784,3.865 79.417,3.748 C80.050,3.631 80.671,3.572 81.280,3.572 C82.483,3.572 83.507,3.803 84.351,4.263 C85.194,4.724 85.687,5.432 85.827,6.384 C85.843,6.478 85.851,6.627 85.851,6.830 C85.851,7.486 85.640,8.017 85.218,8.424 C84.796,8.830 84.194,9.033 83.413,9.033 ZM41.835,18.408 C41.725,18.580 41.452,19.025 41.015,19.744 C40.577,20.463 40.132,21.244 39.679,22.088 C40.272,22.431 40.784,22.849 41.214,23.342 C41.643,23.834 41.858,24.236 41.858,24.549 C41.858,24.736 41.776,24.935 41.612,25.146 C41.448,25.357 41.229,25.537 40.956,25.685 C40.683,25.834 40.374,25.908 40.030,25.908 C39.874,25.908 39.757,25.900 39.679,25.884 C38.679,25.728 37.608,25.650 36.468,25.650 C34.983,25.650 33.155,25.799 30.983,26.095 C30.921,26.939 30.686,27.759 30.280,28.556 C29.874,29.353 29.417,30.002 28.909,30.502 C28.401,31.002 27.983,31.260 27.655,31.275 C27.358,31.275 27.058,30.994 26.753,30.431 C26.448,29.869 26.194,29.217 25.991,28.474 C25.788,27.732 25.687,27.158 25.687,26.752 C25.687,26.549 25.725,26.174 25.804,25.627 C26.007,23.955 26.108,22.478 26.108,21.197 C26.108,20.588 26.100,20.119 26.085,19.791 C26.007,17.994 25.874,16.549 25.687,15.455 C25.499,14.361 25.241,13.439 24.913,12.689 L24.726,13.134 C24.460,13.822 24.245,14.416 24.081,14.916 C23.917,15.416 23.765,16.017 23.624,16.720 C23.452,17.502 23.264,18.877 23.062,20.845 C22.749,23.361 22.464,25.416 22.206,27.009 C21.948,28.603 21.632,29.986 21.257,31.158 C20.976,32.002 20.491,32.873 19.804,33.771 C19.116,34.670 18.374,35.416 17.577,36.009 C16.780,36.603 16.101,36.900 15.538,36.900 C15.225,36.900 14.991,36.837 14.835,36.713 C14.679,36.587 14.569,36.423 14.507,36.220 C14.444,36.017 14.366,35.681 14.272,35.213 C14.132,34.478 13.968,33.810 13.780,33.209 C13.593,32.607 13.257,31.889 12.772,31.052 C12.288,30.217 11.616,29.338 10.757,28.416 C10.694,28.322 10.647,28.228 10.616,28.134 C9.319,30.322 7.843,32.170 6.187,33.677 C4.530,35.185 2.702,36.236 0.702,36.830 C0.577,36.861 0.475,36.877 0.397,36.877 C0.132,36.877 -0.001,36.791 -0.001,36.619 C-0.001,36.447 0.147,36.220 0.444,35.939 C3.178,33.314 5.425,30.100 7.183,26.295 C8.940,22.490 10.280,18.549 11.202,14.470 C10.889,14.533 10.655,14.572 10.499,14.588 C8.733,14.916 7.647,15.103 7.241,15.150 C6.819,15.197 6.323,14.947 5.753,14.400 C5.182,13.853 4.671,13.232 4.218,12.537 C3.764,11.842 3.538,11.377 3.538,11.142 C3.538,10.955 3.675,10.783 3.948,10.627 C4.221,10.471 4.421,10.400 4.546,10.416 C5.046,10.478 5.710,10.509 6.538,10.509 C8.257,10.509 10.085,10.377 12.022,10.111 C12.178,9.096 12.296,8.174 12.374,7.345 C12.389,7.236 12.397,7.072 12.397,6.853 C12.397,6.338 12.339,5.896 12.222,5.529 C12.104,5.162 11.944,4.767 11.741,4.345 C11.616,4.127 11.554,3.978 11.554,3.900 C11.538,3.791 11.694,3.580 12.022,3.267 C12.351,2.955 12.714,2.674 13.112,2.424 C13.511,2.174 13.819,2.049 14.038,2.049 C14.444,2.049 15.014,2.268 15.749,2.705 C16.483,3.142 17.140,3.631 17.718,4.170 C18.296,4.709 18.585,5.135 18.585,5.447 C18.600,5.681 18.581,5.869 18.526,6.009 C18.471,6.150 18.374,6.306 18.233,6.478 C17.983,6.806 17.780,7.236 17.624,7.767 L17.296,8.892 L18.069,8.634 C18.975,8.338 19.647,8.127 20.085,8.002 C20.522,7.877 20.882,7.814 21.163,7.814 C21.507,7.814 22.003,8.064 22.651,8.564 C23.300,9.064 23.882,9.631 24.397,10.263 C24.913,10.896 25.171,11.416 25.171,11.822 L25.171,11.892 C25.452,11.721 25.687,11.634 25.874,11.634 C26.343,11.634 26.979,11.822 27.784,12.197 C28.589,12.572 29.210,12.986 29.647,13.439 C30.600,13.236 31.905,12.877 33.562,12.361 C33.843,12.283 34.561,11.978 35.718,11.447 C35.827,11.400 36.081,11.283 36.479,11.095 C36.878,10.908 37.198,10.771 37.440,10.685 C37.683,10.600 37.851,10.556 37.944,10.556 C38.179,10.556 38.757,10.865 39.679,11.482 C40.600,12.100 41.452,12.764 42.233,13.474 C43.015,14.186 43.405,14.697 43.405,15.009 C43.405,15.416 43.288,15.853 43.054,16.322 C42.819,16.791 42.413,17.486 41.835,18.408 ZM18.515,13.299 C17.968,13.299 17.186,13.392 16.171,13.580 L16.030,14.142 C15.483,16.424 14.792,18.728 13.956,21.056 C13.120,23.385 12.116,25.556 10.944,27.572 C11.038,27.541 11.108,27.525 11.155,27.525 C11.296,27.525 11.421,27.580 11.530,27.689 C11.624,27.768 11.854,27.881 12.222,28.029 C12.589,28.178 13.065,28.310 13.651,28.427 C14.237,28.545 14.866,28.603 15.538,28.603 C15.960,28.603 16.429,27.549 16.944,25.439 C17.460,23.330 17.936,20.998 18.374,18.443 C18.811,15.888 19.030,14.494 19.030,14.259 C19.030,14.213 19.054,14.123 19.101,13.990 C19.147,13.857 19.171,13.752 19.171,13.674 C19.171,13.424 18.952,13.299 18.515,13.299 ZM35.366,15.877 C35.241,15.752 34.835,15.689 34.147,15.689 C33.569,15.689 32.921,15.732 32.202,15.818 C31.483,15.904 30.811,16.033 30.187,16.205 C30.124,17.111 30.093,18.025 30.093,18.947 C30.108,19.556 30.159,20.166 30.245,20.775 C30.331,21.384 30.452,22.119 30.608,22.978 C32.639,22.884 33.913,22.760 34.429,22.603 C34.788,22.494 35.069,22.392 35.272,22.299 C35.460,20.455 35.554,18.846 35.554,17.470 C35.554,16.549 35.491,16.017 35.366,15.877 Z"/></svg>